<svg xmlns="http://www.w3.org/2000/svg" width="1024" height="1024" viewBox="0 0 1024 1024">
<g>
<path d="M 0.00 0.00 L 1024.00 0.00 L 1024.00 1024.00 L 0.00 1024.00 ZM 304.08 440.98 C314.80,442.48 343.24,441.41 353.00,439.15 C380.53,432.77 404.31,419.66 423.99,400.00 C448.16,375.85 462.62,346.80 467.06,313.50 C469.82,292.80 466.75,265.12 459.46,245.00 C446.88,210.24 417.75,178.30 384.70,163.03 C338.92,141.89 284.05,146.66 240.25,175.60 C229.75,182.53 211.51,200.40 204.11,211.00 C170.52,259.08 168.01,320.53 197.61,369.69 C210.54,391.16 229.45,410.00 250.30,422.17 C265.36,430.97 287.27,438.63 304.08,440.98 ZM 765.50 879.84 C768.54,881.51 871.64,881.40 875.00,879.72 C876.38,879.03 878.29,876.90 879.25,874.99 C880.90,871.70 881.00,857.98 881.00,631.31 C881.00,469.69 880.67,390.91 879.98,390.49 C879.42,390.14 879.20,389.48 879.49,389.02 C879.77,388.56 878.62,387.02 876.93,385.59 L 873.85 383.00 L 821.37 383.00 L 817.66 383.00 C773.19,383.00 766.01,383.00 763.20,386.50 C762.58,387.27 762.18,388.21 761.63,389.36 C760.14,392.52 760.00,412.78 760.02,633.65 C760.04,860.35 760.15,874.62 761.77,876.62 C762.72,877.79 764.40,879.23 765.50,879.84 ZM 610.24 879.46 C612.24,880.87 618.32,881.02 663.84,880.77 L 715.17 880.50 L 717.59 877.69 L 720.00 874.89 L 720.25 778.19 C720.50,683.28 720.43,603.84 720.05,556.73 C719.87,533.36 719.83,532.91 717.52,530.23 L 715.17 527.50 L 665.05 527.22 C620.73,526.98 614.52,527.13 611.54,528.55 C610.60,529.00 609.79,529.14 609.10,529.51 C604.98,531.68 604.99,541.66 605.01,670.00 C605.01,680.65 605.01,692.11 605.01,704.45 C605.01,714.38 605.01,723.73 605.01,732.55 C605.00,868.07 605.00,875.85 608.67,878.47 C609.14,878.80 609.66,879.05 610.24,879.46 ZM 457.78 879.46 C460.11,880.73 467.78,880.92 510.84,880.72 L 561.17 880.50 L 563.47 877.83 L 565.76 875.16 L 566.21 761.33 C566.58,668.24 566.42,647.01 565.33,644.81 C564.80,643.72 564.42,642.84 563.83,642.12 C561.28,639.00 554.90,639.00 515.56,639.00 C514.15,639.00 512.68,639.00 511.18,639.00 C468.53,639.00 462.40,639.19 459.37,640.63 C458.32,641.13 457.44,641.34 456.71,641.78 C452.97,644.04 452.97,652.47 453.00,736.92 C453.00,744.14 453.00,751.91 453.00,760.29 C453.00,836.13 453.34,874.77 454.03,876.05 C454.59,877.10 456.28,878.63 457.78,879.46 ZM 160.04 774.55 C160.70,775.35 162.02,776.00 162.97,776.00 C167.35,776.00 225.14,750.20 271.50,727.55 C380.88,674.12 477.39,614.22 581.00,535.45 C606.46,516.10 655.99,475.01 677.62,455.31 C724.05,413.01 769.69,365.63 803.80,324.33 C810.23,316.54 816.16,310.12 816.97,310.08 C817.78,310.04 826.61,314.95 836.59,321.00 C846.57,327.05 855.68,332.00 856.84,332.00 C861.72,332.00 861.79,331.31 862.56,272.27 L 862.61 267.98 C863.20,223.17 863.30,215.53 860.49,214.25 C859.91,213.99 859.22,213.99 858.37,214.00 C858.24,214.00 858.11,214.00 857.98,214.00 C856.45,214.00 845.60,218.32 833.85,223.61 C822.11,228.89 803.72,237.17 793.00,242.01 C782.28,246.85 766.97,253.72 759.00,257.27 C745.20,263.43 744.49,263.89 744.19,266.81 C744.18,266.95 744.16,267.08 744.15,267.21 C744.08,267.78 744.03,268.25 744.11,268.69 C744.48,270.81 747.78,272.42 766.72,282.22 L 784.95 291.64 L 772.52 306.86 C698.92,396.98 610.42,480.55 499.93,564.26 C401.55,638.79 291.19,706.39 182.00,759.02 C168.13,765.70 159.37,770.48 159.17,771.48 C158.98,772.37 159.38,773.75 160.04,774.55 ZM 307.78 879.44 C310.07,880.69 318.17,880.93 359.20,880.96 C394.91,880.99 408.61,880.68 410.53,879.81 C411.31,879.45 411.97,879.18 412.54,878.77 C416.00,876.32 416.00,868.99 416.00,809.12 L 416.00 804.36 L 416.00 735.62 L 413.75 732.29 C412.51,730.45 410.60,728.72 409.50,728.43 C408.40,728.15 385.19,728.05 357.93,728.21 L 308.37 728.50 L 305.68 731.40 L 303.00 734.29 L 303.00 804.21 C303.00,850.06 303.35,874.79 304.03,876.05 C304.59,877.10 306.28,878.63 307.78,879.44 Z" fill="rgb(6,19,39)"/>
<path d="M 765.50 879.84 C764.40,879.23 762.72,877.79 761.77,876.62 C760.86,875.51 760.43,870.56 760.22,826.91 C760.43,865.49 760.81,873.67 761.53,875.05 C763.14,878.18 764.64,879.22 763.25,876.25 C762.80,875.29 762.73,847.72 763.10,815.00 C763.48,782.28 763.86,743.58 763.96,729.00 C764.07,713.17 764.49,703.31 765.00,704.50 C765.76,706.26 765.87,706.16 765.93,703.69 C765.97,702.15 766.40,701.13 766.90,701.44 C767.39,701.74 768.05,701.32 768.36,700.51 C768.67,699.70 769.58,699.29 770.39,699.59 C771.24,699.92 772.30,699.30 772.96,698.08 C773.57,696.93 774.84,695.99 775.79,695.97 C776.73,695.95 778.37,695.28 779.44,694.47 C780.51,693.66 782.08,693.00 782.94,693.00 C783.80,693.00 785.76,691.42 787.29,689.50 C788.83,687.58 790.75,686.00 791.57,686.00 C792.39,686.00 795.24,683.75 797.91,681.00 C800.98,677.83 803.60,676.00 805.07,676.00 C806.35,676.00 809.10,674.82 811.18,673.37 C814.78,670.88 815.09,670.83 817.45,672.37 C818.81,673.27 820.47,674.00 821.14,674.00 C821.80,674.00 823.17,674.75 824.19,675.67 C825.93,677.24 826.22,677.21 828.98,675.17 C830.60,673.98 832.33,673.00 832.84,673.00 C833.34,673.00 834.32,672.33 835.00,671.50 C835.88,670.43 838.22,670.00 843.07,670.00 C850.84,670.00 855.89,667.74 857.88,663.36 C858.99,660.92 859.40,660.78 863.72,661.37 C866.27,661.72 869.20,662.78 870.24,663.72 C871.86,665.19 872.25,665.22 873.05,663.96 C873.55,663.16 873.98,661.49 873.98,660.25 C873.99,659.01 874.42,658.00 874.94,658.00 C875.46,658.00 876.06,656.31 876.27,654.25 L 876.66 650.50 L 877.02 655.00 C877.30,658.62 877.49,657.94 878.00,651.50 C878.38,646.73 878.79,657.44 879.01,678.00 C879.38,711.43 879.41,710.70 880.06,654.50 C880.61,606.26 880.88,541.03 880.87,487.48 C880.96,524.58 881.00,572.45 881.00,631.31 C881.00,857.98 880.90,871.70 879.25,874.99 C878.29,876.90 876.38,879.03 875.00,879.72 C871.64,881.40 768.54,881.51 765.50,879.84 ZM 610.24 879.46 C609.66,879.05 609.14,878.80 608.67,878.47 C608.00,877.99 607.45,877.34 607.01,875.77 C609.20,879.37 610.73,880.23 608.91,876.83 C608.10,875.31 607.93,870.68 608.36,861.58 C608.69,854.38 609.05,836.35 609.16,821.50 C609.27,805.43 609.62,797.33 610.00,801.50 L 610.65 808.50 L 610.84 799.50 C611.01,791.40 611.16,790.75 612.35,793.00 C613.07,794.38 614.30,795.35 615.07,795.17 C617.43,794.62 619.42,794.70 621.12,795.42 C622.24,795.90 624.12,794.73 627.29,791.56 C629.79,789.05 632.59,787.00 633.50,787.00 C636.13,787.00 645.55,780.28 646.81,777.51 C648.31,774.23 651.57,774.24 658.09,777.54 C662.65,779.85 663.45,779.97 666.81,778.84 C668.84,778.15 672.72,775.43 675.43,772.80 C679.24,769.08 681.08,768.00 683.57,768.00 C685.86,768.00 688.17,766.84 691.64,763.94 C696.44,759.93 697.31,759.71 703.50,761.02 C704.05,761.14 706.16,761.18 708.19,761.12 C711.16,761.02 712.23,760.42 713.64,758.04 C714.84,756.00 715.74,755.37 716.54,756.03 C717.17,756.55 717.98,756.69 718.34,756.32 C718.70,755.96 719.10,770.93 719.22,789.58 C719.34,809.09 719.69,791.64 720.04,748.50 C720.61,678.36 720.32,554.04 719.60,535.93 C719.91,539.34 719.96,545.28 720.05,556.73 C720.43,603.84 720.50,683.28 720.25,778.19 L 720.00 874.89 L 717.59 877.69 L 715.17 880.50 L 663.84 880.77 C618.32,881.02 612.24,880.87 610.24,879.46 ZM 716.68 529.25 C714.74,527.54 711.26,527.48 665.05,527.22 L 665.05 527.22 L 715.17 527.50 ZM 605.01 732.55 L 605.01 732.33 C605.01,723.58 605.01,714.30 605.01,704.45 C605.01,692.11 605.01,680.65 605.01,670.00 C605.01,680.70 605.02,692.23 605.02,704.64 C605.02,759.13 605.02,795.94 605.09,820.92 C605.01,800.14 605.01,771.67 605.01,732.55 ZM 718.82 532.12 C718.65,531.78 718.44,531.43 718.22,531.09 C718.45,531.41 718.65,531.73 718.82,532.12 Z" fill="rgb(38,155,63)"/>
<path d="M 760.03 687.75 C760.09,766.26 760.24,821.92 760.42,821.92 C761.71,820.62 762.91,738.10 764.08,569.00 C764.30,537.24 764.62,525.85 765.00,536.00 C765.32,544.53 765.73,548.80 765.91,545.50 C766.25,539.51 766.25,539.51 766.94,543.73 C767.67,548.18 769.00,550.62 769.00,547.50 C769.00,546.49 769.29,545.96 769.65,546.32 C770.01,546.68 771.38,545.52 772.68,543.75 C773.99,541.98 777.07,538.43 779.53,535.87 C781.99,533.30 784.00,530.52 784.00,529.68 C784.00,528.84 785.46,526.69 787.25,524.90 C789.04,523.11 790.36,521.02 790.19,520.25 C789.67,517.90 792.13,515.82 794.68,516.45 C796.08,516.81 797.00,516.59 797.00,515.91 C797.00,513.69 801.51,510.03 804.26,510.02 C805.78,510.01 807.81,509.57 808.76,509.05 C809.72,508.53 813.09,507.82 816.25,507.48 C819.41,507.14 822.00,506.41 822.00,505.87 C822.00,505.33 822.45,505.16 823.00,505.50 C823.55,505.84 824.00,505.20 824.00,504.08 C824.00,502.96 825.12,501.31 826.50,500.41 C827.88,499.51 829.00,498.16 829.00,497.42 C829.00,495.77 832.11,494.00 835.00,494.00 C836.17,494.00 838.61,492.87 840.41,491.50 C842.22,490.12 846.32,488.10 849.53,486.99 C856.70,484.52 858.64,482.83 861.31,476.72 C862.65,473.65 863.95,472.03 864.95,472.18 C865.80,472.30 867.51,471.85 868.75,471.17 C870.56,470.17 871.01,470.18 871.03,471.21 C871.05,471.97 871.49,471.77 872.09,470.73 C872.66,469.75 873.60,469.25 874.17,469.61 C874.75,469.96 875.62,469.64 876.10,468.88 C876.72,467.90 877.02,468.37 877.15,470.50 C877.25,472.27 877.60,471.24 878.00,468.00 C878.38,464.90 878.82,475.57 879.02,492.50 L 879.37 522.50 L 880.05 500.00 C880.41,488.26 880.65,472.96 880.78,457.55 C880.81,466.60 880.84,476.58 880.87,487.48 C880.88,541.03 880.61,606.26 880.06,654.50 C879.41,710.70 879.38,711.43 879.01,678.00 C878.79,657.44 878.38,646.73 878.00,651.50 C877.49,657.94 877.30,658.62 877.02,655.00 L 876.66 650.50 L 876.27 654.25 C876.06,656.31 875.46,658.00 874.94,658.00 C874.42,658.00 873.99,659.01 873.98,660.25 C873.98,661.49 873.55,663.16 873.05,663.96 C872.25,665.22 871.86,665.19 870.24,663.72 C869.20,662.78 866.27,661.72 863.72,661.37 C859.40,660.78 858.99,660.92 857.88,663.36 C855.89,667.74 850.84,670.00 843.07,670.00 C838.22,670.00 835.88,670.43 835.00,671.50 C834.32,672.33 833.34,673.00 832.84,673.00 C832.33,673.00 830.60,673.98 828.98,675.17 C826.22,677.21 825.93,677.24 824.19,675.67 C823.17,674.75 821.80,674.00 821.14,674.00 C820.47,674.00 818.81,673.27 817.45,672.37 C815.09,670.83 814.78,670.88 811.18,673.37 C809.10,674.82 806.35,676.00 805.07,676.00 C803.60,676.00 800.98,677.83 797.91,681.00 C795.24,683.75 792.39,686.00 791.57,686.00 C790.75,686.00 788.83,687.58 787.29,689.50 C785.76,691.42 783.80,693.00 782.94,693.00 C782.08,693.00 780.51,693.66 779.44,694.47 C778.37,695.28 776.73,695.95 775.79,695.97 C774.84,695.99 773.57,696.93 772.96,698.08 C772.30,699.30 771.24,699.92 770.39,699.59 C769.58,699.29 768.67,699.70 768.36,700.51 C768.05,701.32 767.39,701.74 766.90,701.44 C766.40,701.13 765.97,702.15 765.93,703.69 C765.87,706.16 765.76,706.26 765.00,704.50 C764.49,703.31 764.07,713.17 763.96,729.00 C763.86,743.58 763.48,782.28 763.10,815.00 C762.73,847.72 762.80,875.29 763.25,876.25 C764.64,879.22 763.14,878.18 761.53,875.05 C760.81,873.67 760.43,865.49 760.22,826.91 C760.09,799.15 760.05,755.76 760.03,687.75 ZM 605.76 842.45 C606.81,852.50 607.52,826.24 608.61,737.00 C609.10,697.12 609.75,668.78 610.06,674.00 C610.48,681.19 610.71,682.28 610.98,678.50 L 611.35 673.50 L 611.73 677.77 C611.94,680.12 612.54,681.78 613.06,681.46 C613.58,681.14 614.01,681.92 614.02,683.19 C614.03,684.83 614.27,685.12 614.87,684.17 C615.45,683.26 617.45,682.93 621.10,683.12 L 626.49 683.41 L 627.20 678.47 C628.51,669.26 628.43,669.37 634.74,668.20 C637.91,667.61 643.28,666.83 646.68,666.47 C650.87,666.03 653.41,665.21 654.58,663.91 C655.60,662.78 657.63,662.00 659.55,662.00 C662.16,662.00 662.90,661.52 663.41,659.50 C663.78,658.01 664.75,657.00 665.81,657.00 C666.78,657.00 669.34,656.10 671.50,655.00 C673.66,653.90 676.12,653.00 676.97,653.00 C677.83,653.00 678.97,652.01 679.51,650.81 C680.56,648.49 689.83,641.49 690.70,642.37 C691.52,643.18 694.68,639.73 695.47,637.15 C696.14,635.01 696.58,634.86 700.61,635.46 C704.04,635.98 705.14,635.79 705.59,634.62 C706.04,633.46 706.74,633.33 708.67,634.06 C711.68,635.21 712.59,634.73 715.08,630.64 C716.17,628.85 717.04,628.14 717.10,629.00 C717.15,629.83 717.56,629.38 718.00,628.00 C718.44,626.62 718.92,646.42 719.07,672.00 C719.32,715.37 719.39,716.98 720.10,696.00 C720.19,693.31 720.27,688.89 720.32,683.21 C720.28,706.82 720.19,729.62 720.04,748.50 C719.69,791.64 719.34,809.09 719.22,789.58 C719.10,770.93 718.70,755.96 718.34,756.32 C717.98,756.69 717.17,756.55 716.54,756.03 C715.74,755.37 714.84,756.00 713.64,758.04 C712.23,760.42 711.16,761.02 708.19,761.12 C706.16,761.18 704.05,761.14 703.50,761.02 C697.31,759.71 696.44,759.93 691.64,763.94 C688.17,766.84 685.86,768.00 683.57,768.00 C681.08,768.00 679.24,769.08 675.43,772.80 C672.72,775.43 668.84,778.15 666.81,778.84 C663.45,779.97 662.65,779.85 658.09,777.54 C651.57,774.24 648.31,774.23 646.81,777.51 C645.55,780.28 636.13,787.00 633.50,787.00 C632.59,787.00 629.79,789.05 627.29,791.56 C624.12,794.73 622.24,795.90 621.12,795.42 C619.42,794.70 617.43,794.62 615.07,795.17 C614.30,795.35 613.07,794.38 612.35,793.00 C611.16,790.75 611.01,791.40 610.84,799.50 L 610.65 808.50 L 610.00 801.50 C609.62,797.33 609.27,805.43 609.16,821.50 C609.05,836.35 608.69,854.38 608.36,861.58 C607.93,870.68 608.10,875.31 608.91,876.83 C610.73,880.23 609.20,879.37 607.01,875.77 C605.71,871.23 605.25,858.98 605.09,820.92 C605.02,795.94 605.02,759.13 605.02,704.64 C605.02,692.23 605.01,680.70 605.01,670.00 C605.01,657.46 605.01,646.05 605.01,635.67 C605.01,650.33 605.02,667.04 605.02,686.09 C605.02,768.21 605.36,838.58 605.76,842.45 ZM 553.68 880.53 C557.39,880.39 559.37,880.21 559.50,880.00 C559.91,879.34 543.54,878.93 511.31,878.78 C476.07,878.62 468.48,878.41 484.00,878.03 C495.83,877.74 504.60,877.21 503.50,876.87 C502.21,876.46 503.04,876.19 505.83,876.12 C509.00,876.03 510.65,875.40 512.03,873.75 C513.06,872.51 514.94,870.26 516.20,868.74 C518.31,866.21 519.36,865.90 529.00,864.96 C536.81,864.19 540.22,863.40 542.31,861.89 C544.68,860.17 545.61,860.02 548.21,860.92 C549.91,861.52 552.94,862.00 554.95,862.00 C556.96,862.00 559.14,862.54 559.80,863.20 C560.73,864.13 561.00,864.08 561.02,862.95 C561.03,861.72 561.18,861.72 562.00,863.00 C562.86,864.33 562.97,864.33 563.00,863.00 C563.03,861.67 563.14,861.67 564.02,863.00 C565.42,865.11 564.10,875.10 562.13,877.39 C560.57,879.20 560.60,879.22 562.76,877.89 C564.00,877.13 565.21,875.83 565.44,875.00 C565.68,874.18 566.00,822.42 566.16,760.00 C566.38,677.33 566.21,649.74 565.41,644.99 C566.42,648.00 566.57,670.34 566.21,761.33 L 565.76 875.16 L 563.47 877.83 L 561.17 880.50 ZM 457.78 879.46 C456.49,878.75 455.06,877.52 454.33,876.52 C455.06,877.52 456.49,878.74 457.78,879.44 C458.78,879.99 460.92,880.34 466.51,880.57 C460.86,880.37 458.80,880.02 457.78,879.46 ZM 609.10 529.51 C609.79,529.14 610.60,529.00 611.54,528.55 C610.58,529.00 609.77,529.18 609.07,529.57 C608.47,529.91 607.95,530.41 607.51,531.39 C607.96,530.34 608.49,529.83 609.10,529.51 ZM 548.81 639.20 C541.78,639.00 531.34,639.00 515.57,639.00 C531.30,639.00 541.75,639.00 548.81,639.20 Z" fill="rgb(65,181,72)"/>
<path d="M 605.76 842.45 C605.36,838.58 605.02,768.21 605.02,686.09 C605.02,667.04 605.01,650.33 605.01,635.67 C605.01,619.96 605.02,606.61 605.06,595.24 C605.07,603.46 605.09,612.73 605.11,623.21 C605.20,670.67 605.55,721.65 605.89,736.50 L 606.50 763.50 L 607.12 738.50 C607.46,724.75 608.10,673.97 608.53,625.65 L 609.32 537.81 L 611.66 536.74 C612.95,536.16 614.00,535.30 614.00,534.84 C614.00,534.38 614.70,534.00 615.56,534.00 C616.42,534.00 616.87,533.60 616.57,533.11 C615.57,531.49 622.05,531.23 667.14,531.03 C706.83,530.86 712.14,531.02 714.96,532.48 C717.43,533.76 718.92,534.07 719.26,533.51 C719.40,534.15 719.51,534.93 719.60,535.93 C720.13,549.17 720.42,619.13 720.32,683.21 C720.27,688.89 720.19,693.31 720.10,696.00 C719.39,716.98 719.32,715.37 719.07,672.00 C718.92,646.42 718.44,626.62 718.00,628.00 C717.56,629.38 717.15,629.83 717.10,629.00 C717.04,628.14 716.17,628.85 715.08,630.64 C712.59,634.73 711.68,635.21 708.67,634.06 C706.74,633.33 706.04,633.46 705.59,634.62 C705.14,635.79 704.04,635.98 700.61,635.46 C696.58,634.86 696.14,635.01 695.47,637.15 C694.68,639.73 691.52,643.18 690.70,642.37 C689.83,641.49 680.56,648.49 679.51,650.81 C678.97,652.01 677.83,653.00 676.97,653.00 C676.12,653.00 673.66,653.90 671.50,655.00 C669.34,656.10 666.78,657.00 665.81,657.00 C664.75,657.00 663.78,658.01 663.41,659.50 C662.90,661.52 662.16,662.00 659.55,662.00 C657.63,662.00 655.60,662.78 654.58,663.91 C653.41,665.21 650.87,666.03 646.68,666.47 C643.28,666.83 637.91,667.61 634.74,668.20 C628.43,669.37 628.51,669.26 627.20,678.47 L 626.49 683.41 L 621.10 683.12 C617.45,682.93 615.45,683.26 614.87,684.17 C614.27,685.12 614.03,684.83 614.02,683.19 C614.01,681.92 613.58,681.14 613.06,681.46 C612.54,681.78 611.94,680.12 611.73,677.77 L 611.35 673.50 L 610.98 678.50 C610.71,682.28 610.48,681.19 610.06,674.00 C609.75,668.78 609.10,697.12 608.61,737.00 C607.52,826.24 606.81,852.50 605.76,842.45 ZM 760.03 687.75 C760.03,671.21 760.02,653.22 760.02,633.65 C760.01,554.88 760.03,501.62 760.11,465.55 C760.10,486.61 760.12,513.58 760.15,548.15 C760.24,641.88 760.65,700.92 761.18,697.00 C762.96,683.74 763.80,626.33 763.90,510.84 L 764.00 392.18 L 767.10 389.57 L 770.19 386.97 L 822.35 387.29 C851.03,387.47 875.85,387.96 877.50,388.38 L 879.53 388.90 C879.52,388.95 879.51,388.99 879.49,389.02 C879.20,389.48 879.42,390.14 879.98,390.49 C880.35,390.71 880.61,412.84 880.78,457.55 C880.65,472.96 880.41,488.26 880.05,500.00 L 879.37 522.50 L 879.02 492.50 C878.82,475.57 878.38,464.90 878.00,468.00 C877.60,471.24 877.25,472.27 877.15,470.50 C877.02,468.37 876.72,467.90 876.10,468.88 C875.62,469.64 874.75,469.96 874.17,469.61 C873.60,469.25 872.66,469.75 872.09,470.73 C871.49,471.77 871.05,471.97 871.03,471.21 C871.01,470.18 870.56,470.17 868.75,471.17 C867.51,471.85 865.80,472.30 864.95,472.18 C863.95,472.03 862.65,473.65 861.31,476.72 C858.64,482.83 856.70,484.52 849.53,486.99 C846.32,488.10 842.22,490.12 840.41,491.50 C838.61,492.87 836.17,494.00 835.00,494.00 C832.11,494.00 829.00,495.77 829.00,497.42 C829.00,498.16 827.88,499.51 826.50,500.41 C825.12,501.31 824.00,502.96 824.00,504.08 C824.00,505.20 823.55,505.84 823.00,505.50 C822.45,505.16 822.00,505.33 822.00,505.87 C822.00,506.41 819.41,507.14 816.25,507.48 C813.09,507.82 809.72,508.53 808.76,509.05 C807.81,509.57 805.78,510.01 804.26,510.02 C801.51,510.03 797.00,513.69 797.00,515.91 C797.00,516.59 796.08,516.81 794.68,516.45 C792.13,515.82 789.67,517.90 790.19,520.25 C790.36,521.02 789.04,523.11 787.25,524.90 C785.46,526.69 784.00,528.84 784.00,529.68 C784.00,530.52 781.99,533.30 779.53,535.87 C777.07,538.43 773.99,541.98 772.68,543.75 C771.38,545.52 770.01,546.68 769.65,546.32 C769.29,545.96 769.00,546.49 769.00,547.50 C769.00,550.62 767.67,548.18 766.94,543.73 C766.25,539.51 766.25,539.51 765.91,545.50 C765.73,548.80 765.32,544.53 765.00,536.00 C764.62,525.85 764.30,537.24 764.08,569.00 C762.91,738.10 761.71,820.62 760.42,821.92 C760.24,821.92 760.09,766.26 760.03,687.75 ZM 553.68 880.53 L 510.84 880.72 C486.72,880.83 473.70,880.82 466.51,880.57 C460.92,880.34 458.78,879.99 457.78,879.44 C457.52,879.30 457.25,879.14 456.99,878.96 C457.07,878.99 457.15,879.00 457.21,879.00 C457.82,879.00 457.47,878.08 456.45,876.95 C455.34,875.72 454.60,873.40 454.60,871.20 C454.64,846.33 456.59,765.37 457.08,768.00 C457.44,769.92 457.79,770.60 457.87,769.50 C457.98,767.67 458.59,767.53 464.98,767.83 L 471.97 768.16 L 474.03 764.68 C475.97,761.39 480.00,759.27 481.99,760.49 C482.48,760.80 484.14,759.46 485.69,757.52 C487.92,754.72 489.22,753.99 492.00,753.96 C494.83,753.93 495.88,753.31 497.51,750.71 C499.20,748.02 500.23,747.45 503.84,747.19 C506.21,747.02 508.78,747.40 509.54,748.04 C510.45,748.79 512.61,748.96 515.72,748.51 C520.19,747.87 520.65,747.52 522.77,743.16 C524.01,740.60 525.03,737.74 525.02,736.81 C525.01,735.88 525.38,734.88 525.86,734.59 C527.22,733.75 555.34,734.06 558.50,734.95 C559.05,735.10 560.16,735.29 560.97,735.37 C564.74,735.71 564.96,738.83 565.17,794.50 C565.22,810.12 565.29,818.30 565.37,818.30 C565.51,818.30 565.71,795.99 566.03,748.00 C566.11,735.90 566.18,725.20 566.24,715.75 C566.23,728.36 566.20,743.02 566.16,760.00 C566.00,822.42 565.68,874.18 565.44,875.00 C565.21,875.83 564.00,877.13 562.76,877.89 C560.60,879.22 560.57,879.20 562.13,877.39 C564.10,875.10 565.42,865.11 564.02,863.00 C563.14,861.67 563.03,861.67 563.00,863.00 C562.97,864.33 562.86,864.33 562.00,863.00 C561.18,861.72 561.03,861.72 561.02,862.95 C561.00,864.08 560.73,864.13 559.80,863.20 C559.14,862.54 556.96,862.00 554.95,862.00 C552.94,862.00 549.91,861.52 548.21,860.92 C545.61,860.02 544.68,860.17 542.31,861.89 C540.22,863.40 536.81,864.19 529.00,864.96 C519.36,865.90 518.31,866.21 516.20,868.74 C514.94,870.26 513.06,872.51 512.03,873.75 C510.65,875.40 509.00,876.03 505.83,876.12 C503.04,876.19 502.21,876.46 503.50,876.87 C504.60,877.21 495.83,877.74 484.00,878.03 C468.48,878.41 476.07,878.62 511.31,878.78 C543.54,878.93 559.91,879.34 559.50,880.00 C559.37,880.21 557.39,880.39 553.68,880.53 ZM 411.55 876.55 L 409.09 879.00 L 368.30 878.78 C345.86,878.65 335.38,878.41 345.00,878.25 C356.23,878.05 361.97,877.61 361.02,877.02 C359.86,876.29 360.40,875.73 363.52,874.41 C372.05,870.80 382.58,868.51 383.53,870.05 C384.56,871.72 396.81,871.17 399.62,869.33 C401.33,868.21 402.39,868.01 402.84,868.73 C403.84,870.34 407.23,870.56 409.75,869.17 C410.99,868.49 412.08,868.28 412.18,868.71 C412.27,869.15 412.64,866.35 413.00,862.50 L 413.65 855.50 L 413.82 864.80 C413.99,873.45 413.83,874.26 411.55,876.55 ZM 565.77 649.61 C565.29,644.20 564.51,642.66 563.30,641.64 C562.98,641.36 562.62,641.13 562.23,640.87 C562.94,641.22 563.43,641.63 563.83,642.12 C564.42,642.84 564.80,643.72 565.33,644.81 C565.36,644.86 565.38,644.92 565.41,644.99 C565.54,645.80 565.66,647.29 565.77,649.61 ZM 879.00 387.73 L 874.99 383.97 L 876.93 385.59 C877.80,386.33 878.53,387.10 879.00,387.73 ZM 454.56 876.78 C454.61,876.85 454.66,876.92 454.71,877.00 C454.57,876.84 454.45,876.68 454.33,876.53 L 454.33 876.52 C454.21,876.35 454.10,876.20 454.03,876.05 C453.89,875.80 453.77,874.14 453.67,871.06 C453.88,874.87 454.17,876.23 454.56,876.78 ZM 548.81 639.20 L 549.01 639.20 C541.63,639.04 529.94,639.00 511.18,639.00 L 514.58 639.00 L 515.56 639.00 L 515.57 639.00 L 516.14 639.00 C531.54,639.00 541.83,639.00 548.80,639.20 ZM 608.85 529.89 C608.36,530.23 607.94,530.65 607.57,531.27 C607.99,530.37 608.49,529.90 609.07,529.57 C609.77,529.18 610.58,529.00 611.54,528.55 C610.48,529.05 609.59,529.37 608.85,529.89 Z" fill="rgb(99,206,82)"/>
<path d="M 307.78 879.44 C306.28,878.63 304.59,877.10 304.03,876.05 C303.96,875.92 303.90,875.57 303.84,874.99 C304.08,875.58 304.30,876.00 304.36,876.00 C304.44,876.00 304.53,868.69 304.56,859.75 C304.69,822.86 306.37,755.00 307.16,755.00 C307.62,755.00 308.00,751.89 308.00,748.08 C308.00,740.31 308.59,738.00 310.58,738.00 C311.33,738.00 312.94,736.65 314.16,735.00 L 316.38 732.00 L 361.94 732.00 C405.60,732.01 407.64,732.09 410.75,733.99 L 414.00 735.97 L 414.00 762.49 C414.00,779.50 414.36,789.00 415.00,789.00 C415.64,789.00 416.00,779.44 416.00,762.31 C416.00,736.29 415.94,735.54 413.75,732.29 L 416.00 735.62 L 416.00 804.36 L 416.00 809.12 C416.00,868.99 416.00,876.32 412.54,878.77 C411.97,879.18 411.31,879.45 410.53,879.81 C408.61,880.68 394.91,880.99 359.20,880.96 C318.17,880.93 310.07,880.69 307.78,879.44 ZM 454.56 876.78 C454.17,876.23 453.88,874.87 453.67,871.06 C453.22,858.32 453.00,821.37 453.00,760.29 C453.00,751.91 453.00,744.14 453.00,736.92 L 453.00 736.91 C452.98,691.91 452.98,668.49 453.54,656.10 C453.02,668.18 453.07,690.73 453.16,733.60 C453.18,740.52 453.19,747.96 453.21,755.97 C453.32,815.67 453.40,841.35 453.57,841.35 C453.68,841.35 453.84,829.72 454.09,809.00 C455.89,656.80 455.73,646.03 459.35,644.54 C459.90,644.32 460.54,644.31 461.29,644.05 C463.22,643.38 481.03,643.00 511.03,643.00 C550.49,643.00 558.32,643.24 561.38,644.51 L 565.00 646.03 L 565.17 673.76 C565.30,695.13 565.50,699.09 566.05,691.00 C566.11,690.09 566.17,689.03 566.23,687.85 C566.25,695.79 566.25,705.03 566.24,715.75 C566.18,725.20 566.11,735.90 566.03,748.00 C565.71,795.99 565.51,818.30 565.37,818.30 C565.29,818.30 565.22,810.12 565.17,794.50 C564.96,738.83 564.74,735.71 560.97,735.37 C560.16,735.29 559.05,735.10 558.50,734.95 C555.34,734.06 527.22,733.75 525.86,734.59 C525.38,734.88 525.01,735.88 525.02,736.81 C525.03,737.74 524.01,740.60 522.77,743.16 C520.65,747.52 520.19,747.87 515.72,748.51 C512.61,748.96 510.45,748.79 509.54,748.04 C508.78,747.40 506.21,747.02 503.84,747.19 C500.23,747.45 499.20,748.02 497.51,750.71 C495.88,753.31 494.83,753.93 492.00,753.96 C489.22,753.99 487.92,754.72 485.69,757.52 C484.14,759.46 482.48,760.80 481.99,760.49 C480.00,759.27 475.97,761.39 474.03,764.68 L 471.97 768.16 L 464.98 767.83 C458.59,767.53 457.98,767.67 457.87,769.50 C457.79,770.60 457.44,769.92 457.08,768.00 C456.59,765.37 454.64,846.33 454.60,871.20 C454.60,873.40 455.34,875.72 456.45,876.95 C457.47,878.08 457.82,879.00 457.21,879.00 C457.15,879.00 457.07,878.99 456.99,878.96 C456.15,878.40 455.31,877.67 454.71,877.00 C454.66,876.92 454.61,876.85 454.56,876.78 ZM 760.12 509.96 C760.27,531.18 760.57,541.77 761.00,541.50 C761.55,541.16 762.00,540.01 762.00,538.94 C762.00,537.87 762.45,537.00 763.00,537.00 C763.46,537.00 763.77,524.85 763.91,501.23 L 763.90 510.84 C763.80,626.33 762.96,683.74 761.18,697.00 C760.65,700.92 760.24,641.88 760.15,548.15 C760.14,534.22 760.13,521.53 760.12,509.96 ZM 606.00 590.80 C606.00,622.44 606.24,648.09 606.54,647.80 C606.83,647.50 607.30,625.04 607.57,597.88 C607.98,557.31 608.17,543.73 609.32,538.14 L 608.53 625.65 C608.10,673.97 607.46,724.75 607.12,738.50 L 606.50 763.50 L 605.89 736.50 C605.55,721.65 605.20,670.67 605.11,623.21 C605.09,612.73 605.07,603.46 605.06,595.24 C605.15,565.93 605.38,549.87 606.00,540.95 ZM 411.55 876.55 C413.83,874.26 413.99,873.45 413.82,864.80 L 413.65 855.50 L 413.00 862.50 C412.64,866.35 412.27,869.15 412.18,868.71 C412.08,868.28 410.99,868.49 409.75,869.17 C407.23,870.56 403.84,870.34 402.84,868.73 C402.39,868.01 401.33,868.21 399.62,869.33 C396.81,871.17 384.56,871.72 383.53,870.05 C382.58,868.51 372.05,870.80 363.52,874.41 C360.40,875.73 359.86,876.29 361.02,877.02 C361.97,877.61 356.23,878.05 345.00,878.25 C335.38,878.41 345.86,878.65 368.30,878.78 L 409.09 879.00 ZM 609.40 537.78 C609.90,535.55 610.59,534.69 611.54,533.74 L 613.93 531.35 L 637.82 531.24 C619.03,531.48 615.85,531.94 616.57,533.11 C616.87,533.60 616.42,534.00 615.56,534.00 C614.70,534.00 614.00,534.38 614.00,534.84 C614.00,535.30 612.95,536.16 611.66,536.74 ZM 608.85 529.89 C609.59,529.37 610.48,529.05 611.54,528.55 C611.59,528.52 611.65,528.50 611.71,528.47 C610.55,529.07 609.41,529.87 608.61,530.66 L 607.29 531.98 C607.36,531.77 607.44,531.57 607.51,531.39 C607.53,531.35 607.55,531.31 607.57,531.27 C607.94,530.65 608.36,530.23 608.85,529.89 ZM 564.71 643.70 C564.41,643.11 564.11,642.60 563.74,642.15 C562.40,640.53 560.06,639.74 552.99,639.36 C558.00,639.62 560.65,640.08 562.23,640.87 C562.62,641.13 562.98,641.36 563.30,641.64 C563.86,642.11 564.32,642.69 564.71,643.70 ZM 643.54 527.13 C637.12,527.13 631.40,527.15 626.75,527.19 C630.97,527.13 636.43,527.12 643.54,527.13 ZM 455.95 642.40 C456.18,642.14 456.43,641.95 456.71,641.78 C457.44,641.34 458.32,641.13 459.37,640.63 C458.30,641.14 457.41,641.35 456.67,641.81 C456.41,641.97 456.17,642.16 455.95,642.40 Z" fill="rgb(149,223,97)"/>
<path d="M 462.13 253.34 C459.91,245.82 457.58,239.73 456.26,238.40 C453.67,235.81 447.00,225.04 447.00,223.44 C447.00,222.63 445.30,220.05 443.22,217.73 C441.15,215.40 437.38,211.02 434.85,208.00 C410.23,178.55 378.38,160.77 341.55,155.94 C320.32,153.14 290.14,156.97 272.00,164.74 C250.63,173.90 237.67,182.41 223.01,196.89 C197.77,221.81 183.42,253.39 180.47,290.50 C179.87,297.99 180.69,309.00 183.08,325.50 C183.64,329.35 184.34,334.52 184.65,337.00 C184.95,339.48 186.11,342.49 187.22,343.69 C188.62,345.21 189.11,346.81 188.80,348.89 C188.56,350.54 188.69,351.69 189.10,351.44 C189.50,351.19 190.26,352.97 190.78,355.40 C191.30,357.83 194.10,363.80 197.01,368.66 C202.61,378.02 209.13,386.75 216.38,394.63 C209.29,386.96 202.95,378.55 197.61,369.69 C168.01,320.53 170.52,259.08 204.11,211.00 C211.51,200.40 229.75,182.53 240.25,175.60 C284.05,146.66 338.92,141.89 384.70,163.03 C417.75,178.30 446.88,210.24 459.46,245.00 C460.43,247.66 461.32,250.45 462.13,253.34 ZM 760.12 509.96 C760.11,492.81 760.11,478.13 760.11,465.55 C760.27,400.50 760.67,391.39 761.63,389.36 C762.18,388.21 762.58,387.27 763.20,386.50 C766.01,383.00 773.19,383.00 817.66,383.00 L 821.37 383.00 L 873.85 383.00 L 874.99 383.97 L 877.23 386.07 L 879.00 387.73 C879.36,388.23 879.56,388.65 879.53,388.90 L 877.50 388.38 C875.85,387.96 851.03,387.47 822.35,387.29 L 770.19 386.97 L 767.10 389.57 L 764.00 392.18 L 763.91 501.23 C763.77,524.85 763.46,537.00 763.00,537.00 C762.45,537.00 762.00,537.87 762.00,538.94 C762.00,540.01 761.55,541.16 761.00,541.50 C760.57,541.77 760.27,531.18 760.12,509.96 ZM 344.50 417.99 C337.90,419.18 317.24,420.09 312.50,419.40 C309.80,419.01 303.65,417.63 298.62,416.28 C297.28,415.93 297.09,415.56 297.96,415.02 C298.77,414.53 298.22,414.02 296.37,413.56 C294.64,413.12 293.41,413.26 293.19,413.92 C292.70,415.40 291.39,415.28 287.40,413.39 C284.20,411.87 282.69,409.00 285.10,409.00 C285.70,409.00 290.49,410.14 295.74,411.54 C321.11,418.29 352.49,414.50 376.00,401.85 C416.89,379.85 441.78,338.33 442.07,291.62 C442.12,284.48 442.45,281.22 443.00,282.50 C443.47,283.60 443.89,291.48 443.92,300.00 C443.99,317.65 442.45,326.08 436.33,341.47 C420.69,380.81 384.80,410.71 344.50,417.99 ZM 409.50 728.43 C410.60,728.72 412.51,730.45 413.75,732.29 C415.94,735.54 416.00,736.29 416.00,762.31 C416.00,779.44 415.64,789.00 415.00,789.00 C414.36,789.00 414.00,779.50 414.00,762.49 L 414.00 735.97 L 410.75 733.99 C407.64,732.09 405.60,732.01 361.94,732.00 L 316.38 732.00 L 314.16 735.00 C312.94,736.65 311.33,738.00 310.58,738.00 C308.59,738.00 308.00,740.31 308.00,748.08 C308.00,751.89 307.62,755.00 307.16,755.00 C306.37,755.00 304.69,822.86 304.56,859.75 C304.53,868.69 304.44,876.00 304.36,876.00 C304.30,876.00 304.08,875.58 303.84,874.99 C303.29,869.69 303.00,845.52 303.00,804.21 L 303.00 734.29 L 305.68 731.40 L 308.37 728.50 L 357.93 728.21 C385.19,728.05 408.40,728.15 409.50,728.43 ZM 565.77 649.61 C566.03,655.67 566.18,667.45 566.23,687.85 C566.17,689.03 566.11,690.09 566.05,691.00 C565.50,699.09 565.30,695.13 565.17,673.76 L 565.00 646.03 L 561.38 644.51 C558.32,643.24 550.49,643.00 511.03,643.00 C481.03,643.00 463.22,643.38 461.29,644.05 C460.54,644.31 459.90,644.32 459.35,644.54 C455.73,646.03 455.89,656.80 454.09,809.00 C453.84,829.72 453.68,841.35 453.57,841.35 C453.40,841.35 453.32,815.67 453.21,755.97 C453.19,747.96 453.18,740.52 453.16,733.60 L 453.16 733.60 C453.07,690.73 453.02,668.18 453.54,656.10 C453.95,646.94 454.68,643.80 455.95,642.40 L 455.95 642.40 C456.17,642.16 456.41,641.97 456.67,641.81 C457.41,641.35 458.30,641.14 459.37,640.63 C462.40,639.19 468.53,639.00 511.18,639.00 C529.94,639.00 541.63,639.04 549.01,639.20 C550.48,639.25 551.80,639.30 552.99,639.36 C560.06,639.74 562.40,640.53 563.74,642.15 C564.11,642.60 564.41,643.11 564.71,643.70 C565.16,644.89 565.51,646.68 565.77,649.61 ZM 716.68 529.25 L 717.52 530.23 C717.78,530.53 718.01,530.81 718.22,531.09 C718.44,531.43 718.65,531.78 718.82,532.12 C719.00,532.51 719.14,532.95 719.26,533.51 C718.92,534.07 717.43,533.76 714.96,532.48 C712.14,531.02 706.83,530.86 667.14,531.03 C654.60,531.09 645.05,531.15 637.82,531.24 L 613.93 531.35 L 611.54 533.74 C610.59,534.69 609.90,535.55 609.40,537.78 L 609.32 537.81 L 609.32 538.14 C608.17,543.73 607.98,557.31 607.57,597.88 C607.30,625.04 606.83,647.50 606.54,647.80 C606.24,648.09 606.00,622.44 606.00,590.80 L 606.00 540.95 C606.32,536.34 606.74,533.63 607.29,531.98 L 608.61 530.66 C609.41,529.87 610.55,529.07 611.71,528.47 C613.46,527.70 616.42,527.33 626.75,527.19 L 626.75 527.19 C627.02,527.19 627.29,527.18 627.57,527.18 C631.67,527.13 636.87,527.12 643.53,527.13 L 643.54 527.13 C645.60,527.14 647.80,527.14 650.15,527.15 L 650.26 527.15 C654.62,527.17 659.49,527.19 664.93,527.22 L 665.05 527.22 C711.26,527.48 714.74,527.54 716.68,529.25 ZM 245.81 387.73 C244.89,387.39 243.98,387.56 243.79,388.12 C243.31,389.57 238.67,384.33 238.30,381.91 C237.99,379.86 237.99,379.86 240.75,381.82 C242.26,382.90 244.40,384.81 245.50,386.06 C247.16,387.95 247.21,388.23 245.81,387.73 ZM 270.47 405.04 C269.25,407.02 266.29,405.38 266.32,402.75 C266.34,400.44 267.84,400.55 271.50,403.11 C273.15,404.27 273.73,404.96 272.78,404.65 C271.84,404.34 270.80,404.52 270.47,405.04 ZM 467.21 280.73 C468.37,292.19 468.38,303.64 467.06,313.50 C468.14,305.43 468.09,292.22 467.21,280.73 Z" fill="rgb(224,244,159)"/>
<path d="M 160.04 774.55 C159.38,773.75 158.98,772.37 159.17,771.48 C159.37,770.48 168.13,765.70 182.00,759.02 C291.19,706.39 401.55,638.79 499.93,564.26 C610.42,480.55 698.92,396.98 772.52,306.86 L 784.95 291.64 L 766.72 282.22 C742.90,269.90 743.82,270.53 744.19,266.81 C744.49,263.89 745.20,263.43 759.00,257.27 C766.97,253.72 782.28,246.85 793.00,242.01 C803.72,237.17 822.11,228.89 833.85,223.61 C845.60,218.32 856.45,214.00 857.98,214.00 C863.45,214.00 863.33,212.50 862.56,272.27 C861.79,331.31 861.72,332.00 856.84,332.00 C855.68,332.00 846.57,327.05 836.59,321.00 C826.61,314.95 817.78,310.04 816.97,310.08 C816.16,310.12 810.23,316.54 803.80,324.33 C769.69,365.63 724.05,413.01 677.62,455.31 C655.99,475.01 606.46,516.10 581.00,535.45 C477.39,614.22 380.88,674.12 271.50,727.55 C225.14,750.20 167.35,776.00 162.97,776.00 C162.02,776.00 160.70,775.35 160.04,774.55 ZM 304.08 440.98 C287.27,438.63 265.36,430.97 250.30,422.17 C229.04,409.76 210.40,391.04 197.01,368.66 C194.10,363.80 191.30,357.83 190.78,355.40 C190.26,352.97 189.50,351.19 189.10,351.44 C188.69,351.69 188.56,350.54 188.80,348.89 C189.11,346.81 188.62,345.21 187.22,343.69 C186.11,342.49 184.95,339.48 184.65,337.00 C184.34,334.52 183.64,329.35 183.08,325.50 C180.69,309.00 179.87,297.99 180.47,290.50 C183.42,253.39 197.77,221.81 223.01,196.89 C237.67,182.41 250.63,173.90 272.00,164.74 C290.14,156.97 320.32,153.14 341.55,155.94 C378.38,160.77 410.23,178.55 434.85,208.00 C437.38,211.02 441.15,215.40 443.22,217.73 C445.30,220.05 447.00,222.63 447.00,223.44 C447.00,225.04 453.67,235.81 456.26,238.40 C458.20,240.35 462.32,252.58 465.04,264.50 C467.70,276.15 468.73,301.00 467.06,313.50 C462.62,346.80 448.16,375.85 423.99,400.00 C404.31,419.66 380.53,432.77 353.00,439.15 C343.24,441.41 314.80,442.48 304.08,440.98 ZM 344.50 417.99 C384.80,410.71 420.69,380.81 436.33,341.47 C442.45,326.08 443.99,317.65 443.92,300.00 C443.89,291.48 443.47,283.60 443.00,282.50 C442.45,281.22 442.12,284.48 442.07,291.62 C441.78,338.33 416.89,379.85 376.00,401.85 C352.49,414.50 321.11,418.29 295.74,411.54 C290.49,410.14 285.70,409.00 285.10,409.00 C282.69,409.00 284.20,411.87 287.40,413.39 C291.39,415.28 292.70,415.40 293.19,413.92 C293.41,413.26 294.64,413.12 296.37,413.56 C298.22,414.02 298.77,414.53 297.96,415.02 C297.09,415.56 297.28,415.93 298.62,416.28 C303.65,417.63 309.80,419.01 312.50,419.40 C317.24,420.09 337.90,419.18 344.50,417.99 ZM 270.47 405.04 C270.80,404.52 271.84,404.34 272.78,404.65 C273.73,404.96 273.15,404.27 271.50,403.11 C267.84,400.55 266.34,400.44 266.32,402.75 C266.29,405.38 269.25,407.02 270.47,405.04 ZM 245.81 387.73 C247.21,388.23 247.16,387.95 245.50,386.06 C244.40,384.81 242.26,382.90 240.75,381.82 C237.99,379.86 237.99,379.86 238.30,381.91 C238.67,384.33 243.31,389.57 243.79,388.12 C243.98,387.56 244.89,387.39 245.81,387.73 Z" fill="rgb(168,108,5)"/>
<path d="M 160.04 774.55 C159.38,773.75 158.98,772.37 159.17,771.48 C159.37,770.48 168.13,765.70 182.00,759.02 C291.19,706.39 401.55,638.79 499.93,564.26 C610.42,480.55 698.92,396.98 772.52,306.86 L 784.95 291.64 L 766.72 282.22 C742.90,269.90 743.82,270.53 744.19,266.81 C744.49,263.89 745.20,263.43 759.00,257.27 C766.97,253.72 782.28,246.85 793.00,242.01 C803.72,237.17 822.11,228.89 833.85,223.61 C845.60,218.32 856.45,214.00 857.98,214.00 C863.45,214.00 863.33,212.50 862.56,272.27 C861.79,331.31 861.72,332.00 856.84,332.00 C855.68,332.00 846.57,327.05 836.59,321.00 C826.61,314.95 817.78,310.04 816.97,310.08 C816.16,310.12 810.23,316.54 803.80,324.33 C769.69,365.63 724.05,413.01 677.62,455.31 C655.99,475.01 606.46,516.10 581.00,535.45 C477.39,614.22 380.88,674.12 271.50,727.55 C225.14,750.20 167.35,776.00 162.97,776.00 C162.02,776.00 160.70,775.35 160.04,774.55 ZM 304.08 440.98 C287.27,438.63 265.36,430.97 250.30,422.17 C229.04,409.76 210.40,391.04 197.01,368.66 C194.10,363.80 191.30,357.83 190.78,355.40 C190.26,352.97 189.50,351.19 189.10,351.44 C188.69,351.69 188.56,350.54 188.80,348.89 C189.11,346.81 188.62,345.21 187.22,343.69 C186.11,342.49 184.95,339.48 184.65,337.00 C184.34,334.52 183.64,329.35 183.08,325.50 C180.69,309.00 179.87,297.99 180.47,290.50 C183.42,253.39 197.77,221.81 223.01,196.89 C237.67,182.41 250.63,173.90 272.00,164.74 C290.14,156.97 320.32,153.14 341.55,155.94 C378.38,160.77 410.23,178.55 434.85,208.00 C437.38,211.02 441.15,215.40 443.22,217.73 C445.30,220.05 447.00,222.63 447.00,223.44 C447.00,225.04 453.67,235.81 456.26,238.40 C458.20,240.35 462.32,252.58 465.04,264.50 C467.70,276.15 468.73,301.00 467.06,313.50 C462.62,346.80 448.16,375.85 423.99,400.00 C404.31,419.66 380.53,432.77 353.00,439.15 C343.24,441.41 314.80,442.48 304.08,440.98 ZM 344.50 417.99 C384.80,410.71 420.69,380.81 436.33,341.47 C442.45,326.08 443.99,317.65 443.92,300.00 C443.89,291.48 443.47,283.60 443.00,282.50 C442.45,281.22 442.12,284.48 442.07,291.62 C441.78,338.33 416.89,379.85 376.00,401.85 C352.49,414.50 321.11,418.29 295.74,411.54 C290.49,410.14 285.70,409.00 285.10,409.00 C282.69,409.00 284.20,411.87 287.40,413.39 C291.39,415.28 292.70,415.40 293.19,413.92 C293.41,413.26 294.64,413.12 296.37,413.56 C298.22,414.02 298.77,414.53 297.96,415.02 C297.09,415.56 297.28,415.93 298.62,416.28 C303.65,417.63 309.80,419.01 312.50,419.40 C317.24,420.09 337.90,419.18 344.50,417.99 ZM 270.47 405.04 C270.80,404.52 271.84,404.34 272.78,404.65 C273.73,404.96 273.15,404.27 271.50,403.11 C267.84,400.55 266.34,400.44 266.32,402.75 C266.29,405.38 269.25,407.02 270.47,405.04 ZM 245.81 387.73 C247.21,388.23 247.16,387.95 245.50,386.06 C244.40,384.81 242.26,382.90 240.75,381.82 C237.99,379.86 237.99,379.86 238.30,381.91 C238.67,384.33 243.31,389.57 243.79,388.12 C243.98,387.56 244.89,387.39 245.81,387.73 ZM 330.00 373.15 C330.00,366.20 331.75,363.63 337.18,362.62 C342.00,361.72 353.69,355.74 357.50,352.23 C360.72,349.26 367.00,338.27 367.00,335.61 C367.00,334.72 367.35,334.00 367.77,334.00 C368.19,334.00 368.26,330.06 367.91,325.25 C367.45,318.70 366.65,315.24 364.73,311.50 C359.87,302.01 350.11,294.92 335.75,290.43 L 330.00 288.63 L 330.00 272.32 C330.00,261.84 330.37,256.00 331.02,256.00 C333.65,256.00 343.26,260.10 348.53,263.48 C355.25,267.77 354.13,268.37 361.20,256.67 L 365.39 249.73 L 362.45 247.34 C355.43,241.65 344.10,236.72 335.29,235.53 L 330.08 234.82 L 329.79 227.66 L 329.50 220.50 L 322.00 220.50 L 314.50 220.50 L 314.21 227.63 L 313.92 234.76 L 308.21 235.89 C285.39,240.42 271.46,260.86 277.36,281.15 C280.58,292.25 288.81,299.56 304.88,305.62 L 313.50 308.87 L 313.39 325.68 L 313.28 342.50 L 310.89 342.16 C307.28,341.64 294.00,335.94 294.00,334.91 C294.00,334.41 293.33,334.00 292.50,334.00 C291.67,334.00 291.00,333.57 291.00,333.05 C291.00,331.73 284.31,328.67 282.74,329.27 C282.04,329.54 280.91,330.94 280.23,332.38 C279.56,333.82 278.48,336.12 277.84,337.48 C277.20,338.85 275.85,340.86 274.84,341.94 C272.24,344.73 272.53,346.25 276.31,349.69 C281.31,354.24 293.37,359.76 304.00,362.36 L 313.50 364.69 L 313.24 369.60 C312.74,378.81 312.92,379.00 322.02,379.00 L 330.00 379.00 L 330.00 373.15 ZM 227.96 364.86 C227.47,363.14 226.40,361.00 225.60,360.11 C223.22,357.48 216.47,343.12 213.66,334.71 C204.31,306.76 205.46,277.92 216.98,251.66 C237.11,205.77 285.31,177.71 335.08,182.92 C362.57,185.80 386.58,197.49 405.69,217.32 C419.35,231.49 427.28,244.77 433.56,264.00 C435.09,268.67 436.67,272.73 437.07,273.00 C437.48,273.28 438.27,275.08 438.82,277.00 L 439.82 280.50 L 439.90 277.00 C439.94,275.08 439.29,270.58 438.45,267.00 C429.73,229.75 403.09,198.89 367.35,184.66 C339.27,173.47 306.38,173.77 277.37,185.47 C248.92,196.94 223.60,221.79 212.02,249.61 C205.97,264.14 203.87,274.12 203.28,291.11 C202.69,308.18 203.51,315.25 207.64,328.95 C211.22,340.81 220.76,359.43 226.77,366.25 C228.87,368.64 229.00,368.49 227.96,364.86 ZM 330.00 327.50 C330.00,319.52 330.24,313.00 330.54,313.00 C332.38,313.00 339.16,317.40 341.37,320.03 C346.30,325.89 344.07,335.55 336.76,340.01 C330.17,344.02 330.00,343.71 330.00,327.50 ZM 309.45 282.59 C305.37,280.82 301.23,275.72 300.44,271.51 C299.24,265.16 304.01,258.85 311.75,256.54 L 314.00 255.87 L 314.00 269.93 C314.00,277.67 313.66,283.98 313.25,283.96 C312.84,283.94 311.13,283.32 309.45,282.59 Z" fill="rgb(249,191,34)"/>
<path d="M 160.04 774.55 C159.38,773.75 158.98,772.37 159.17,771.48 C159.37,770.48 168.13,765.70 182.00,759.02 C291.19,706.39 401.55,638.79 499.93,564.26 C610.42,480.55 698.92,396.98 772.52,306.86 L 784.95 291.64 L 766.72 282.22 C742.90,269.90 743.82,270.53 744.19,266.81 C744.49,263.89 745.20,263.43 759.00,257.27 C766.97,253.72 782.28,246.85 793.00,242.01 C803.72,237.17 822.11,228.89 833.85,223.61 C845.60,218.32 856.45,214.00 857.98,214.00 C863.45,214.00 863.33,212.50 862.56,272.27 C861.79,331.31 861.72,332.00 856.84,332.00 C855.68,332.00 846.57,327.05 836.59,321.00 C826.61,314.95 817.78,310.04 816.97,310.08 C816.16,310.12 810.23,316.54 803.80,324.33 C769.69,365.63 724.05,413.01 677.62,455.31 C655.99,475.01 606.46,516.10 581.00,535.45 C477.39,614.22 380.88,674.12 271.50,727.55 C225.14,750.20 167.35,776.00 162.97,776.00 C162.02,776.00 160.70,775.35 160.04,774.55 ZM 253.50 423.69 C241.15,416.95 232.28,410.36 221.16,399.62 C208.48,387.38 192.70,364.42 190.78,355.40 C190.26,352.97 189.50,351.19 189.10,351.44 C188.69,351.69 188.56,350.54 188.80,348.89 C189.11,346.81 188.62,345.21 187.22,343.69 C186.11,342.49 184.95,339.48 184.65,337.00 C184.34,334.52 183.64,329.35 183.08,325.50 C180.69,309.00 179.87,297.99 180.47,290.50 C183.42,253.39 197.77,221.81 223.01,196.89 C237.67,182.41 250.63,173.90 272.00,164.74 C290.14,156.97 320.32,153.14 341.55,155.94 C378.38,160.77 410.23,178.55 434.85,208.00 C437.38,211.02 441.15,215.40 443.22,217.73 C445.30,220.05 447.00,222.63 447.00,223.44 C447.00,225.06 453.68,235.82 456.31,238.45 C458.27,240.41 463.13,255.34 465.60,267.00 C468.50,280.65 467.98,321.52 464.86,324.48 C464.11,325.20 463.99,324.18 464.44,321.00 C464.80,318.52 465.33,308.40 465.63,298.50 C466.15,281.47 466.07,280.37 464.16,278.18 C463.06,276.91 461.93,276.01 461.66,276.18 C461.39,276.36 460.83,276.16 460.42,275.75 C460.00,275.34 460.19,275.00 460.83,275.00 C462.21,275.00 462.42,266.22 461.10,264.12 C459.76,262.01 458.07,263.70 457.41,267.81 C456.86,271.29 456.61,271.51 452.91,271.67 C446.21,271.97 446.01,272.10 445.87,275.92 C445.79,277.89 445.43,286.48 445.05,295.00 L 444.36 310.50 L 444.17 298.00 C444.06,291.12 443.65,284.38 443.25,283.00 C442.59,280.72 442.47,280.85 441.85,284.50 C441.22,288.22 441.18,288.13 441.34,283.25 C441.43,280.36 441.25,278.00 440.95,278.00 C440.65,278.00 439.87,274.88 439.22,271.06 C432.79,233.57 404.37,199.40 367.35,184.66 C339.27,173.47 306.38,173.77 277.37,185.47 C248.92,196.94 223.60,221.79 212.02,249.61 C205.97,264.14 203.87,274.12 203.28,291.11 C202.53,312.98 205.50,327.91 214.06,345.25 C219.21,355.67 228.34,369.58 230.96,370.98 C232.11,371.60 232.83,372.46 232.56,372.90 C232.29,373.35 233.18,374.76 234.56,376.05 C237.36,378.69 240.62,384.46 238.68,383.36 C238.03,382.99 238.84,384.13 240.48,385.89 C242.12,387.66 243.61,388.67 243.78,388.15 C243.96,387.63 245.09,387.49 246.30,387.85 C249.19,388.70 257.00,394.02 257.00,395.13 C257.00,395.61 257.34,395.90 257.75,395.77 C258.16,395.64 260.37,396.60 262.66,397.90 C265.97,399.78 266.74,400.73 266.41,402.53 C265.86,405.57 268.69,406.58 271.32,404.27 C272.43,403.30 273.05,403.01 272.69,403.62 C272.29,404.31 272.90,404.77 274.27,404.81 C276.69,404.87 287.30,408.88 285.25,408.95 C282.81,409.04 284.05,411.77 287.25,413.35 C293.08,416.23 288.18,415.08 279.28,411.49 C268.25,407.05 253.96,398.95 247.50,393.49 C241.82,388.68 237.08,386.07 235.25,386.72 C233.65,387.29 233.61,391.00 235.20,391.00 C235.95,391.00 236.05,391.35 235.45,391.93 C234.17,393.19 225.82,394.10 226.56,392.90 C226.88,392.39 227.49,392.19 227.92,392.45 C228.35,392.72 229.52,392.34 230.50,391.62 C232.23,390.36 232.22,390.22 230.28,388.28 C229.16,387.16 228.08,385.80 227.88,385.26 C227.67,384.71 226.55,383.97 225.38,383.61 C223.57,383.04 223.19,383.44 222.71,386.40 C222.40,388.30 221.15,390.85 219.93,392.07 L 217.70 394.30 L 224.87 401.15 C228.82,404.92 232.71,408.00 233.52,408.00 C234.33,408.00 235.00,408.56 235.01,409.25 C235.01,409.94 236.70,411.61 238.76,412.97 C240.82,414.32 243.80,416.49 245.40,417.78 C246.99,419.07 250.93,421.45 254.15,423.08 C257.37,424.70 260.00,426.25 260.00,426.51 C260.00,427.23 260.01,427.23 253.50,423.69 ZM 217.29 386.98 C216.59,384.32 214.98,383.41 213.95,385.09 C213.00,386.62 214.57,389.00 216.53,389.00 C217.32,389.00 217.61,388.23 217.29,386.98 ZM 295.77 416.67 C293.09,415.83 292.27,415.13 292.87,414.19 C293.41,413.33 294.62,413.12 296.44,413.57 C298.36,414.06 298.80,414.51 297.90,415.06 C297.01,415.61 297.53,416.07 299.55,416.52 C304.15,417.54 304.70,417.84 302.00,417.84 C300.62,417.85 297.82,417.32 295.77,416.67 ZM 306.69 340.76 C303.49,339.68 301.11,338.56 301.40,338.27 C301.68,337.98 303.74,338.48 305.98,339.37 C308.21,340.27 310.48,341.00 311.02,341.00 C311.62,341.00 312.00,334.93 312.00,325.44 C312.00,315.32 311.65,310.10 311.00,310.50 C310.45,310.84 310.00,310.57 310.00,309.89 C310.00,309.22 309.71,308.96 309.35,309.32 C308.99,309.68 307.30,309.13 305.60,308.11 C303.13,306.62 297.47,304.35 294.00,303.46 C290.12,302.45 286.46,300.38 286.68,299.30 C286.97,297.87 282.01,298.36 281.09,299.85 C279.96,301.68 276.96,300.94 275.61,298.50 C273.92,295.45 272.70,294.96 270.89,296.60 C269.98,297.43 268.17,298.21 266.86,298.34 C264.83,298.54 261.63,300.04 255.00,303.89 C252.20,305.52 244.00,307.00 237.74,307.01 C231.91,307.02 231.32,306.80 228.80,303.76 C226.35,300.79 225.91,300.62 223.92,301.84 C222.00,303.02 221.48,302.93 219.62,301.06 C217.64,299.08 217.52,298.05 217.76,285.32 C218.07,268.43 219.71,262.81 230.24,242.50 C245.10,213.83 281.04,191.81 315.50,190.26 C329.73,189.63 347.20,191.38 352.11,193.94 C354.15,195.00 357.64,196.36 359.86,196.96 C363.12,197.84 376.53,206.90 381.41,211.53 C385.89,215.77 387.15,218.10 387.59,223.03 C387.86,225.93 388.31,228.69 388.60,229.16 C388.89,229.63 388.35,230.31 387.39,230.68 C384.20,231.91 382.02,234.95 380.96,239.66 C380.39,242.23 379.32,245.49 378.58,246.92 C377.85,248.34 376.85,250.82 376.37,252.44 C375.73,254.59 374.63,255.60 372.27,256.21 C370.50,256.67 368.59,257.90 368.02,258.95 C367.46,260.01 366.05,261.17 364.88,261.54 C363.71,261.91 359.87,265.09 356.36,268.61 C352.84,272.12 349.16,275.00 348.18,275.00 C347.20,275.00 344.88,276.56 343.04,278.46 C341.19,280.36 339.33,281.70 338.90,281.44 C338.47,281.17 337.22,281.92 336.12,283.10 C334.27,285.08 334.24,285.43 335.67,287.62 C336.83,289.39 337.81,289.84 339.57,289.39 C342.00,288.78 348.00,290.86 348.00,292.30 C348.00,292.75 348.45,292.84 349.00,292.50 C349.55,292.16 350.00,292.43 350.00,293.11 C350.00,293.78 350.27,294.06 350.61,293.73 C351.27,293.07 353.01,294.72 360.25,302.87 C362.86,305.81 365.00,308.71 365.00,309.31 C365.00,309.90 363.64,308.54 361.97,306.27 C357.23,299.83 344.13,292.30 332.75,289.47 L 330.00 288.78 L 330.00 272.39 C330.00,261.86 330.37,256.00 331.02,256.00 C333.65,256.00 343.26,260.10 348.53,263.48 C355.25,267.77 354.13,268.37 361.20,256.67 L 365.39 249.73 L 362.45 247.34 C355.43,241.65 344.10,236.72 335.29,235.53 L 330.08 234.82 L 329.79 227.66 L 329.50 220.50 L 322.00 220.50 L 314.50 220.50 L 314.21 227.63 L 313.92 234.76 L 308.21 235.89 C275.77,242.32 264.61,279.62 289.60,298.07 C292.52,300.23 295.10,302.00 295.34,302.00 C295.57,302.00 297.50,302.77 299.63,303.70 C301.76,304.64 305.75,306.12 308.50,306.99 L 313.50 308.58 L 313.50 325.38 C313.50,334.63 313.27,342.31 313.00,342.46 C312.73,342.61 309.88,341.84 306.69,340.76 ZM 338.65 273.98 C339.42,270.13 340.07,269.78 343.91,271.12 C346.23,271.93 347.41,271.91 348.45,271.04 C349.66,270.04 349.59,269.59 348.01,268.01 C344.76,264.76 341.87,263.60 340.89,265.15 C340.42,265.89 340.02,267.09 340.02,267.81 C340.01,268.53 339.57,268.85 339.04,268.53 C338.51,268.20 337.16,268.51 336.04,269.21 C333.77,270.63 333.23,275.52 335.25,276.34 C337.62,277.29 338.05,276.99 338.65,273.98 ZM 330.00 327.50 C330.00,319.52 330.28,313.00 330.63,313.00 C331.54,313.00 338.00,317.07 338.00,317.64 C338.00,317.90 337.55,317.84 337.00,317.50 C335.04,316.29 332.33,316.20 332.17,317.34 C332.09,317.98 331.73,323.34 331.38,329.25 C330.80,338.93 330.91,340.00 332.43,340.00 C333.36,340.00 333.84,340.45 333.50,341.00 C333.16,341.55 332.23,342.00 331.44,342.00 C330.25,342.00 330.00,339.46 330.00,327.50 ZM 340.33 335.00 C342.45,331.34 343.25,325.38 341.99,322.76 C340.93,320.59 340.95,320.58 342.44,322.44 C344.86,325.46 344.40,331.02 341.44,334.50 C339.37,336.93 339.16,337.02 340.33,335.00 ZM 309.45 282.59 C305.37,280.82 301.23,275.72 300.44,271.51 C299.24,265.16 304.01,258.85 311.75,256.54 L 314.00 255.87 L 314.00 269.93 C314.00,277.67 313.66,283.98 313.25,283.96 C312.84,283.94 311.13,283.32 309.45,282.59 Z" fill="rgb(250,250,250)"/>
<path d="M 253.50 423.69 C241.15,416.95 232.28,410.36 221.16,399.62 C208.48,387.38 192.70,364.42 190.78,355.40 C190.26,352.97 189.50,351.19 189.10,351.44 C188.69,351.69 188.56,350.54 188.80,348.89 C189.11,346.81 188.62,345.21 187.22,343.69 C186.11,342.49 184.95,339.48 184.65,337.00 C184.34,334.52 183.64,329.35 183.08,325.50 C180.69,309.00 179.87,297.99 180.47,290.50 C183.42,253.39 197.77,221.81 223.01,196.89 C237.67,182.41 250.63,173.90 272.00,164.74 C290.14,156.97 320.32,153.14 341.55,155.94 C378.38,160.77 410.23,178.55 434.85,208.00 C437.38,211.02 441.15,215.40 443.22,217.73 C445.30,220.05 447.00,222.63 447.00,223.44 C447.00,225.06 453.68,235.82 456.31,238.45 C458.27,240.41 463.13,255.34 465.60,267.00 C468.50,280.65 467.98,321.52 464.86,324.48 C464.11,325.20 463.99,324.18 464.44,321.00 C464.80,318.52 465.33,308.40 465.63,298.50 C466.15,281.47 466.07,280.37 464.16,278.18 C463.06,276.91 461.93,276.01 461.66,276.18 C461.39,276.36 460.83,276.16 460.42,275.75 C460.00,275.34 460.19,275.00 460.83,275.00 C462.21,275.00 462.42,266.22 461.10,264.12 C459.76,262.01 458.07,263.70 457.41,267.81 C456.86,271.29 456.61,271.51 452.91,271.67 C446.21,271.97 446.01,272.10 445.87,275.92 C445.79,277.89 445.43,286.48 445.05,295.00 L 444.36 310.50 L 444.17 298.00 C444.06,291.12 443.65,284.38 443.25,283.00 C442.59,280.72 442.47,280.85 441.85,284.50 C441.22,288.22 441.18,288.13 441.34,283.25 C441.43,280.36 441.25,278.00 440.95,278.00 C440.65,278.00 439.87,274.88 439.22,271.06 C432.79,233.57 404.37,199.40 367.35,184.66 C339.27,173.47 306.38,173.77 277.37,185.47 C248.92,196.94 223.60,221.79 212.02,249.61 C205.97,264.14 203.87,274.12 203.28,291.11 C202.53,312.98 205.50,327.91 214.06,345.25 C219.21,355.67 228.34,369.58 230.96,370.98 C232.11,371.60 232.83,372.46 232.56,372.90 C232.29,373.35 233.18,374.76 234.56,376.05 C237.36,378.69 240.62,384.46 238.68,383.36 C238.03,382.99 238.84,384.13 240.48,385.89 C242.12,387.66 243.61,388.67 243.78,388.15 C243.96,387.63 245.09,387.49 246.30,387.85 C249.19,388.70 257.00,394.02 257.00,395.13 C257.00,395.61 257.34,395.90 257.75,395.77 C258.16,395.64 260.37,396.60 262.66,397.90 C265.97,399.78 266.74,400.73 266.41,402.53 C265.86,405.57 268.69,406.58 271.32,404.27 C272.43,403.30 273.05,403.01 272.69,403.62 C272.29,404.31 272.90,404.77 274.27,404.81 C276.69,404.87 287.30,408.88 285.25,408.95 C282.81,409.04 284.05,411.77 287.25,413.35 C293.08,416.23 288.18,415.08 279.28,411.49 C268.25,407.05 253.96,398.95 247.50,393.49 C241.82,388.68 237.08,386.07 235.25,386.72 C233.65,387.29 233.61,391.00 235.20,391.00 C235.95,391.00 236.05,391.35 235.45,391.93 C234.17,393.19 225.82,394.10 226.56,392.90 C226.88,392.39 227.49,392.19 227.92,392.45 C228.35,392.72 229.52,392.34 230.50,391.62 C232.23,390.36 232.22,390.22 230.28,388.28 C229.16,387.16 228.08,385.80 227.88,385.26 C227.67,384.71 226.55,383.97 225.38,383.61 C223.57,383.04 223.19,383.44 222.71,386.40 C222.40,388.30 221.15,390.85 219.93,392.07 L 217.70 394.30 L 224.87 401.15 C228.82,404.92 232.71,408.00 233.52,408.00 C234.33,408.00 235.00,408.56 235.01,409.25 C235.01,409.94 236.70,411.61 238.76,412.97 C240.82,414.32 243.80,416.49 245.40,417.78 C246.99,419.07 250.93,421.45 254.15,423.08 C257.37,424.70 260.00,426.25 260.00,426.51 C260.00,427.23 260.01,427.23 253.50,423.69 ZM 217.29 386.98 C216.59,384.32 214.98,383.41 213.95,385.09 C213.00,386.62 214.57,389.00 216.53,389.00 C217.32,389.00 217.61,388.23 217.29,386.98 ZM 295.77 416.67 C293.09,415.83 292.27,415.13 292.87,414.19 C293.41,413.33 294.62,413.12 296.44,413.57 C298.36,414.06 298.80,414.51 297.90,415.06 C297.01,415.61 297.53,416.07 299.55,416.52 C304.15,417.54 304.70,417.84 302.00,417.84 C300.62,417.85 297.82,417.32 295.77,416.67 ZM 306.69 340.76 C303.49,339.68 301.11,338.56 301.40,338.27 C301.68,337.98 303.74,338.48 305.98,339.37 C308.21,340.27 310.48,341.00 311.02,341.00 C311.62,341.00 312.00,334.93 312.00,325.44 C312.00,315.32 311.65,310.10 311.00,310.50 C310.45,310.84 310.00,310.57 310.00,309.89 C310.00,309.22 309.71,308.96 309.35,309.32 C308.99,309.68 307.30,309.13 305.60,308.11 C303.13,306.62 297.47,304.35 294.00,303.46 C290.12,302.45 286.46,300.38 286.68,299.30 C286.97,297.87 282.01,298.36 281.09,299.85 C279.96,301.68 276.96,300.94 275.61,298.50 C273.92,295.45 272.70,294.96 270.89,296.60 C269.98,297.43 268.17,298.21 266.86,298.34 C264.83,298.54 261.63,300.04 255.00,303.89 C252.20,305.52 244.00,307.00 237.74,307.01 C231.91,307.02 231.32,306.80 228.80,303.76 C226.35,300.79 225.91,300.62 223.92,301.84 C222.00,303.02 221.48,302.93 219.62,301.06 C217.64,299.08 217.52,298.05 217.76,285.32 C218.07,268.43 219.71,262.81 230.24,242.50 C245.10,213.83 281.04,191.81 315.50,190.26 C329.73,189.63 347.20,191.38 352.11,193.94 C354.15,195.00 357.64,196.36 359.86,196.96 C363.12,197.84 376.53,206.90 381.41,211.53 C385.89,215.77 387.15,218.10 387.59,223.03 C387.86,225.93 388.31,228.69 388.60,229.16 C388.89,229.63 388.35,230.31 387.39,230.68 C384.20,231.91 382.02,234.95 380.96,239.66 C380.39,242.23 379.32,245.49 378.58,246.92 C377.85,248.34 376.85,250.82 376.37,252.44 C375.73,254.59 374.63,255.60 372.27,256.21 C370.50,256.67 368.59,257.90 368.02,258.95 C367.46,260.01 366.05,261.17 364.88,261.54 C363.71,261.91 359.87,265.09 356.36,268.61 C352.84,272.12 349.16,275.00 348.18,275.00 C347.20,275.00 344.88,276.56 343.04,278.46 C341.19,280.36 339.33,281.70 338.90,281.44 C338.47,281.17 337.22,281.92 336.12,283.10 C334.27,285.08 334.24,285.43 335.67,287.62 C336.83,289.39 337.81,289.84 339.57,289.39 C342.00,288.78 348.00,290.86 348.00,292.30 C348.00,292.75 348.45,292.84 349.00,292.50 C349.55,292.16 350.00,292.43 350.00,293.11 C350.00,293.78 350.27,294.06 350.61,293.73 C351.27,293.07 353.01,294.72 360.25,302.87 C362.86,305.81 365.00,308.71 365.00,309.31 C365.00,309.90 363.64,308.54 361.97,306.27 C357.23,299.83 344.13,292.30 332.75,289.47 L 330.00 288.78 L 330.00 272.39 C330.00,261.86 330.37,256.00 331.02,256.00 C333.65,256.00 343.26,260.10 348.53,263.48 C355.25,267.77 354.13,268.37 361.20,256.67 L 365.39 249.73 L 362.45 247.34 C355.43,241.65 344.10,236.72 335.29,235.53 L 330.08 234.82 L 329.79 227.66 L 329.50 220.50 L 322.00 220.50 L 314.50 220.50 L 314.21 227.63 L 313.92 234.76 L 308.21 235.89 C275.77,242.32 264.61,279.62 289.60,298.07 C292.52,300.23 295.10,302.00 295.34,302.00 C295.57,302.00 297.50,302.77 299.63,303.70 C301.76,304.64 305.75,306.12 308.50,306.99 L 313.50 308.58 L 313.50 325.38 C313.50,334.63 313.27,342.31 313.00,342.46 C312.73,342.61 309.88,341.84 306.69,340.76 ZM 338.65 273.98 C339.42,270.13 340.07,269.78 343.91,271.12 C346.23,271.93 347.41,271.91 348.45,271.04 C349.66,270.04 349.59,269.59 348.01,268.01 C344.76,264.76 341.87,263.60 340.89,265.15 C340.42,265.89 340.02,267.09 340.02,267.81 C340.01,268.53 339.57,268.85 339.04,268.53 C338.51,268.20 337.16,268.51 336.04,269.21 C333.77,270.63 333.23,275.52 335.25,276.34 C337.62,277.29 338.05,276.99 338.65,273.98 ZM 330.00 327.50 C330.00,319.52 330.28,313.00 330.63,313.00 C331.54,313.00 338.00,317.07 338.00,317.64 C338.00,317.90 337.55,317.84 337.00,317.50 C335.04,316.29 332.33,316.20 332.17,317.34 C332.09,317.98 331.73,323.34 331.38,329.25 C330.80,338.93 330.91,340.00 332.43,340.00 C333.36,340.00 333.84,340.45 333.50,341.00 C333.16,341.55 332.23,342.00 331.44,342.00 C330.25,342.00 330.00,339.46 330.00,327.50 ZM 340.33 335.00 C342.45,331.34 343.25,325.38 341.99,322.76 C340.93,320.59 340.95,320.58 342.44,322.44 C344.86,325.46 344.40,331.02 341.44,334.50 C339.37,336.93 339.16,337.02 340.33,335.00 ZM 309.45 282.59 C305.37,280.82 301.23,275.72 300.44,271.51 C299.24,265.16 304.01,258.85 311.75,256.54 L 314.00 255.87 L 314.00 269.93 C314.00,277.67 313.66,283.98 313.25,283.96 C312.84,283.94 311.13,283.32 309.45,282.59 Z" fill="rgb(252,220,60)"/>
</g>
</svg>